<svg width="25" height="20" viewBox="0 0 25 20" fill="none" xmlns="http://www.w3.org/2000/svg">
<path d="M9.61919 13.6977C9.61919 14.7793 9.05578 16.549 7.72223 16.549C6.38867 16.549 5.82527 14.7793 5.82527 13.6977C5.82527 12.6162 6.38867 10.8464 7.72223 10.8464C9.05578 10.8464 9.61919 12.6162 9.61919 13.6977ZM24.8104 11.0844C24.8104 12.7352 24.645 14.4843 23.9058 16.0005C21.9468 19.9644 16.5609 19.8713 12.705 19.8713C8.787 19.8713 3.08062 20.011 1.0441 16.0005C0.289454 14.4998 0 12.7352 0 11.0844C0 8.91619 0.718467 6.86697 2.14506 5.20586C1.87628 4.38824 1.74706 3.52922 1.74706 2.68055C1.74706 1.56797 2.00034 1.00909 2.50171 0C4.84319 0 6.34215 0.465733 8.12539 1.86293C9.62435 1.50587 11.1647 1.34545 12.7101 1.34545C14.1057 1.34545 15.5116 1.49552 16.8659 1.82153C18.6233 0.439858 20.1222 0 22.4379 0C22.9444 1.00909 23.1925 1.56797 23.1925 2.68055C23.1925 3.52922 23.0581 4.37271 22.7945 5.17481C24.2159 6.85145 24.8104 8.91619 24.8104 11.0844ZM21.4868 13.6977C21.4868 11.426 20.1067 9.42333 17.6877 9.42333C16.7108 9.42333 15.7753 9.59927 14.7932 9.73381C14.023 9.85283 13.2529 9.89941 12.462 9.89941C11.6764 9.89941 10.9062 9.85283 10.1309 9.73381C9.16433 9.59927 8.21843 9.42333 7.23636 9.42333C4.81735 9.42333 3.43727 11.426 3.43727 13.6977C3.43727 18.2412 7.593 18.9398 11.2112 18.9398H13.7026C17.3362 18.9398 21.4868 18.2464 21.4868 13.6977ZM17.2174 10.8464C15.8838 10.8464 15.3204 12.6162 15.3204 13.6977C15.3204 14.7793 15.8838 16.549 17.2174 16.549C18.5509 16.549 19.1143 14.7793 19.1143 13.6977C19.1143 12.6162 18.5509 10.8464 17.2174 10.8464Z" fill="#BABABA"/>
</svg>
