<svg width="30" height="24" viewBox="0 0 30 24" fill="none" xmlns="http://www.w3.org/2000/svg">
<path d="M8.70839 13.4866H16.6449V21.1815H13.3737L12.9833 17.8916C12.6116 19.0688 11.9487 19.9424 10.9946 20.5124C10.0404 21.0824 8.87567 21.3673 7.50026 21.3673C6.24875 21.3673 5.13354 21.0886 4.15464 20.531C3.18813 19.9734 2.42608 19.1741 1.86848 18.1333C1.32326 17.0924 1.05066 15.8781 1.05066 14.4903C1.05066 12.2723 1.71359 10.5189 3.03944 9.23022C4.36529 7.94154 6.42842 7.2972 9.22882 7.2972C10.8273 7.2972 12.2337 7.55742 13.448 8.07784C14.6747 8.59827 15.7156 9.4037 16.5706 10.4941C16.013 10.7791 14.9226 11.3491 13.2993 12.2041L12.8346 12.4643C12.3514 11.9811 11.7876 11.6217 11.1433 11.3863C10.4989 11.1385 9.8174 11.0145 9.09871 11.0145C7.90916 11.0145 7.0232 11.3305 6.44081 11.9625C5.85843 12.582 5.56724 13.3503 5.56724 14.2672C5.56724 15.2585 5.87701 16.0577 6.49657 16.6649C7.12852 17.2721 8.08884 17.5757 9.37752 17.5757C9.93512 17.5757 10.4741 17.4951 10.9946 17.334C11.5274 17.173 11.9735 16.8942 12.3328 16.4976H8.70839V13.4866Z" fill="#BABABA"/>
<path d="M28.9493 6.53609C27.0039 6.47413 25.1143 6.43696 23.2804 6.42457V16.1268H18.6337V6.42457C16.7874 6.43696 14.904 6.47413 12.9833 6.53609V2.63288H28.9493V6.53609Z" fill="#BABABA"/>
</svg>
