<svg width="30" height="24" viewBox="0 0 30 24" fill="none" xmlns="http://www.w3.org/2000/svg">
<path fill-rule="evenodd" clip-rule="evenodd" d="M24.7272 3.68466C25.8254 3.99844 26.6099 4.7829 26.9236 5.88113C27.5512 7.9207 27.5512 11.9999 27.5512 11.9999C27.5512 11.9999 27.5512 16.079 27.0805 18.1186C26.7668 19.2168 25.9823 20.0013 24.884 20.315C22.8445 20.7857 15 20.7857 15 20.7857C15 20.7857 6.99855 20.7857 5.11586 20.315C4.01763 20.0013 3.23319 19.2168 2.91941 18.1186C2.44873 16.079 2.44873 11.9999 2.44873 11.9999C2.44873 11.9999 2.44873 7.9207 2.76251 5.88113C3.07629 4.7829 3.86075 3.99844 4.95899 3.68466C6.99856 3.21399 14.8431 3.21399 14.8431 3.21399C14.8431 3.21399 22.8445 3.21399 24.7272 3.68466ZM12.4897 8.92376C12.4897 8.61663 12.8215 8.42408 13.0882 8.57646L18.4714 11.6526C18.7401 11.8061 18.7401 12.1936 18.4714 12.3472L13.0882 15.4233C12.8215 15.5756 12.4897 15.3831 12.4897 15.076V8.92376Z" fill="#BABABA"/>
</svg>
