<svg width="37" height="34" viewBox="0 0 37 34" fill="none" xmlns="http://www.w3.org/2000/svg">
<g clip-path="url(#clip0_211_2076)">
<path d="M8.81751 10.0038C7.40398 10.0038 6.04836 10.5653 5.04885 11.5648L1.78686 14.8268C0.787349 15.8263 0.22583 17.1819 0.22583 18.5955C0.22583 21.539 2.61202 23.9252 5.55554 23.9252C6.96907 23.9252 8.32469 23.3636 9.3242 22.3641L11.5805 20.1078C11.5805 20.1077 11.5806 20.1078 11.5805 20.1078L18.1547 13.5336C18.6321 13.0562 19.2795 12.7881 19.9546 12.7881C21.0849 12.7881 22.0431 13.5247 22.3753 14.544L24.4501 12.4692C23.5036 10.9868 21.8439 10.0038 19.9546 10.0038C18.5411 10.0038 17.1855 10.5653 16.186 11.5648L7.35544 20.3954C6.87807 20.8727 6.23064 21.1409 5.55554 21.1409C4.14973 21.1409 3.01011 20.0013 3.01011 18.5955C3.01011 17.9204 3.27828 17.2729 3.75564 16.7956L7.01761 13.5336C7.49498 13.0562 8.14241 12.7881 8.81751 12.7881C9.94779 12.7881 10.9059 13.5247 11.2382 14.5441L13.313 12.4693C12.3665 10.9868 10.7068 10.0038 8.81751 10.0038Z" fill="#394149"/>
<path d="M18.4925 20.3954C18.0152 20.8727 17.3677 21.1409 16.6926 21.1409C15.5626 21.1409 14.6044 20.4045 14.2721 19.3853L12.1974 21.46C13.1439 22.9423 14.8035 23.9252 16.6926 23.9252C18.1062 23.9252 19.4618 23.3636 20.4613 22.3641L29.2918 13.5336C29.7692 13.0562 30.4166 12.7881 31.0917 12.7881C32.4976 12.7881 33.6372 13.9277 33.6372 15.3335C33.6372 16.0086 33.369 16.656 32.8916 17.1334L29.6297 20.3954C29.1523 20.8727 28.5049 21.1409 27.8298 21.1409C26.6996 21.1409 25.7414 20.4043 25.4092 19.385L23.3344 21.4598C24.2809 22.9422 25.9405 23.9252 27.8298 23.9252C29.2433 23.9252 30.5989 23.3636 31.5984 22.3641L34.8604 19.1022C35.8599 18.1026 36.4214 16.747 36.4214 15.3335C36.4214 12.39 34.0353 10.0038 31.0917 10.0038C29.6782 10.0038 28.3226 10.5653 27.3231 11.5648L18.4925 20.3954Z" fill="#394149"/>
</g>
<defs>
<clipPath id="clip0_211_2076">
<rect width="36.1956" height="13.9214" fill="white" transform="translate(0.22583 10.0038)"/>
</clipPath>
</defs>
</svg>
