<svg width="39" height="34" viewBox="0 0 39 34" fill="none" xmlns="http://www.w3.org/2000/svg">
<g clip-path="url(#clip0_211_2080)">
<path d="M38.8874 13.9503C38.8914 13.9212 38.8914 13.8919 38.8874 13.8629C38.8912 13.8392 38.8912 13.8151 38.8874 13.7914L38.6038 11.7501C38.5629 11.5058 38.4535 11.2776 38.2878 11.0908L38.2392 11.0352L38.1501 10.9478L33.2403 6.80164L33.3781 6.93668C33.2654 6.80451 33.1239 6.69879 32.9641 6.62731C32.8043 6.55583 32.6301 6.5204 32.4545 6.52364H30.9637C30.7213 6.51894 30.4844 6.5945 30.2912 6.73811C30.0884 6.59536 29.8441 6.52019 29.5944 6.52364H28.1037C27.9081 6.52054 27.7153 6.56811 27.5446 6.66156C27.3738 6.75501 27.2313 6.89102 27.1315 7.05582C26.9775 7.29119 26.9196 7.57479 26.9694 7.85011L27.1558 9.13685C27.0323 9.06824 26.8926 9.03264 26.7506 9.03361H19.5318C19.2728 9.0352 19.0198 9.10962 18.8026 9.24805C18.5926 9.37691 18.4241 9.56141 18.3165 9.78022L17.7575 9.3116C17.5374 9.11201 17.247 9.00383 16.9473 9.00977H5.62073C5.36081 9.01441 5.10666 9.0856 4.88347 9.21629C4.57813 9.3915 4.35435 9.67639 4.2596 10.0106L0.662334 21.8058C0.59512 22.0001 0.588508 22.2097 0.643345 22.4078C0.698182 22.6058 0.811983 22.7834 0.970212 22.9178C1.01144 22.9521 1.05473 22.9839 1.09985 23.0131C1.09985 23.0131 1.02692 22.9654 0.986407 22.9257L5.89622 27.0799C6.10391 27.2673 6.37546 27.3721 6.65775 27.3737H18.0735C18.3342 27.3671 18.5885 27.2931 18.8107 27.1593C18.9364 27.0919 19.0489 27.0032 19.1429 26.8971L19.1834 26.8415L19.2482 26.7621L19.2968 26.6748L19.8316 27.1275C20.0363 27.3075 20.3019 27.4066 20.577 27.4055H32.0169C32.2773 27.397 32.5312 27.3232 32.7542 27.1911C32.8771 27.1196 32.9889 27.0313 33.0864 26.9289L33.1269 26.8733L33.1917 26.7939C33.2261 26.7437 33.256 26.6905 33.2808 26.635C33.3073 26.5869 33.329 26.5364 33.3456 26.4842L36.6269 15.7136V15.6183C36.631 15.5813 36.631 15.544 36.6269 15.5071V15.4356C36.6308 15.4119 36.6308 15.3878 36.6269 15.3641C36.6306 15.3139 36.6306 15.2634 36.6269 15.2132H37.6802C37.7718 15.2214 37.864 15.2214 37.9556 15.2132H38.0286C38.0879 15.1958 38.145 15.1718 38.1987 15.1417H38.2798L38.4256 15.0305L38.4904 14.9828L38.6038 14.8398V14.7922L38.6848 14.6572C38.6803 14.6309 38.6803 14.604 38.6848 14.5778C38.6805 14.5649 38.6805 14.5509 38.6848 14.538C38.7021 14.4915 38.7156 14.4436 38.7253 14.395C38.7216 14.3794 38.7216 14.363 38.7253 14.3474C38.7214 14.3237 38.7214 14.2996 38.7253 14.2759C38.7253 14.2759 38.8874 13.9661 38.8874 13.9503Z" fill="black"/>
<path d="M17.2795 9.9153C17.3225 9.95343 17.3525 10.0036 17.3656 10.059C17.3786 10.1143 17.374 10.1723 17.3524 10.2251L13.7633 22.0123C13.7181 22.141 13.6256 22.2486 13.504 22.3142C13.405 22.3791 13.2905 22.4174 13.1718 22.4254H1.76424C1.66682 22.4208 1.57452 22.3812 1.50497 22.3142C1.4636 22.2766 1.43456 22.2279 1.42157 22.1742C1.40858 22.1204 1.41224 22.0641 1.43206 22.0123L5.02933 10.2251C5.07077 10.0948 5.16033 9.98428 5.28048 9.9153C5.38107 9.85506 5.49506 9.81963 5.61267 9.81203H17.0202C17.1169 9.81295 17.2095 9.84987 17.2795 9.9153ZM11.3245 19.6374L13.4716 12.6H7.45993L5.32099 19.6374H11.3245ZM28.1685 10.0344C28.2074 10.0788 28.2561 10.1139 28.3108 10.1373C28.3655 10.1607 28.4248 10.1717 28.4845 10.1695H29.9671C30.0236 10.17 30.0792 10.1564 30.1289 10.13C30.1785 10.1036 30.2204 10.0652 30.2507 10.0185C30.277 9.98207 30.2956 9.94077 30.3054 9.8971C30.3151 9.85344 30.3158 9.80831 30.3074 9.76438L30.0157 7.66745C29.988 7.5704 29.9381 7.48079 29.87 7.40534C29.831 7.36099 29.7824 7.32583 29.7277 7.30245C29.6729 7.27907 29.6136 7.26809 29.5539 7.27031H28.0713C28.0148 7.26977 27.9592 7.28334 27.9096 7.30975C27.8599 7.33615 27.818 7.37452 27.7877 7.42123C27.731 7.53243 27.7067 7.60391 27.731 7.66745L28.0308 9.76438C28.0462 9.86648 28.0944 9.9611 28.1685 10.0344ZM32.8758 7.65157C32.848 7.55451 32.7981 7.4649 32.7299 7.38945C32.6926 7.34527 32.6454 7.31011 32.592 7.2867C32.5387 7.26328 32.4805 7.25223 32.422 7.25442H30.9313C30.8758 7.25287 30.8208 7.26608 30.7723 7.29265C30.7238 7.31921 30.6836 7.35816 30.6558 7.40534C30.6019 7.4758 30.5786 7.56432 30.591 7.65157L30.8907 9.74849C30.9096 9.84952 30.9573 9.94319 31.0285 10.0185C31.0681 10.062 31.1169 10.0966 31.1714 10.1199C31.226 10.1432 31.285 10.1547 31.3445 10.1536H32.8352C32.8906 10.1543 32.9452 10.1407 32.9935 10.1142C33.0419 10.0878 33.0823 10.0493 33.1107 10.0027C33.1389 9.96713 33.1586 9.92585 33.1684 9.88187C33.1783 9.83789 33.1779 9.79232 33.1674 9.74849L32.8758 7.65157ZM26.8641 10.8287L26.7182 9.79615H19.5318C19.419 9.80225 19.3098 9.83791 19.2158 9.8994C19.1562 9.93131 19.1042 9.97552 19.0637 10.029C19.0231 10.0825 18.9949 10.144 18.9809 10.2092L18.3813 12.179C18.3574 12.2282 18.3492 12.2835 18.3579 12.3373C18.3666 12.3912 18.3917 12.4412 18.4299 12.4809C18.4983 12.5438 18.5874 12.5805 18.6811 12.5841H27.4151L25.268 19.6215H16.5584C16.4461 19.624 16.3367 19.657 16.2425 19.7168C16.1279 19.7882 16.0442 19.8985 16.0075 20.0266L15.3998 21.9965C15.38 22.047 15.3748 22.1019 15.3848 22.1552C15.3948 22.2085 15.4196 22.2579 15.4565 22.2983C15.5227 22.3654 15.6126 22.4052 15.7077 22.4094H27.1477C27.266 22.3995 27.38 22.3613 27.4798 22.2983C27.5995 22.2324 27.6892 22.1246 27.731 21.9965L31.0204 11.2259H27.3178C27.259 11.227 27.2007 11.2163 27.1464 11.1945C27.092 11.1726 27.0428 11.14 27.0019 11.0988C26.9349 11.0267 26.8875 10.9393 26.8641 10.8446V10.8287Z" fill="white"/>
</g>
<defs>
<clipPath id="clip0_211_2080">
<rect width="38.2838" height="20.8821" fill="white" transform="translate(0.606567 6.52344)"/>
</clipPath>
</defs>
</svg>
