<svg width="46" height="40" viewBox="0 0 46 40" fill="none" xmlns="http://www.w3.org/2000/svg">
<path d="M45.9187 26.8834C45.9187 33.8031 40.3092 39.4126 33.3894 39.4126L14.5956 39.4126C12.6734 39.4126 11.1152 37.8544 11.1152 35.9322L11.1152 12.2659C11.1152 8.4216 14.2316 5.30519 18.0759 5.30519L42.4384 5.30519C44.3605 5.30519 45.9187 6.8634 45.9187 8.78554L45.9187 26.8834Z" fill="#E8F5E9"/>
<path d="M17.3729 7.39343C14.8871 7.39343 12.8634 9.43562 12.8634 11.932C12.8634 13.5113 13.6743 14.9057 14.8989 15.7185C13.4199 16.2131 12.1401 17.1374 11.2014 18.3466C10.6824 17.9474 10.1025 17.6263 9.47742 17.3963C10.4254 16.6925 11.0448 15.5621 11.0448 14.2915C11.0448 12.1742 9.33245 10.441 7.22801 10.441C5.12358 10.441 3.41119 12.1742 3.41119 14.2915C3.41119 15.5628 4.03118 16.6938 4.97993 17.3976C2.46811 18.3244 0.674194 20.7512 0.674194 23.6072V25.6133C0.674451 25.7663 0.735627 25.9128 0.844097 26.0205C0.952566 26.1285 1.09934 26.1886 1.25228 26.1881H10.0541C10.0754 26.1904 10.0967 26.1917 10.1181 26.1914H24.6282C24.6495 26.1917 24.6711 26.1904 24.6922 26.1881H33.4947C33.8111 26.1868 34.0673 25.93 34.0681 25.6133V23.6072C34.0681 20.7512 32.2773 18.3244 29.7668 17.3973C30.7155 16.6938 31.3355 15.5625 31.3355 14.2912C31.3355 12.1739 29.6231 10.4407 27.5187 10.4407C25.4143 10.4407 23.7019 12.1739 23.7019 14.2912C23.7019 15.5618 24.3216 16.6925 25.2696 17.396C24.6432 17.6266 24.063 17.9487 23.5433 18.3489C22.6051 17.1389 21.3271 16.2134 19.8481 15.7185C21.0723 14.9057 21.8836 13.5113 21.8836 11.932C21.8836 9.43562 19.8589 7.39343 17.373 7.39343H17.3729ZM17.3729 8.54498C19.2321 8.54498 20.7309 10.0538 20.7309 11.932C20.7309 13.7956 19.2554 15.2898 17.4168 15.3137C17.4022 15.3137 17.3878 15.3117 17.3729 15.3117C17.358 15.3117 17.3438 15.3137 17.3289 15.3137C15.4903 15.2901 14.0159 13.7956 14.0159 11.932C14.0159 10.0536 15.5134 8.54498 17.3726 8.54498H17.3729ZM7.22808 11.5924C8.70325 11.5924 9.89335 12.7897 9.89335 14.2914C9.89335 15.783 8.71864 16.9752 7.25736 16.9914C7.24759 16.9914 7.23808 16.9903 7.22806 16.9903C7.21829 16.9903 7.20878 16.9914 7.19876 16.9914C5.73748 16.9752 4.56277 15.7828 4.56277 14.2914C4.56277 12.7898 5.75287 11.5924 7.22804 11.5924H7.22808ZM27.5184 11.5924C28.9935 11.5924 30.1836 12.7897 30.1836 14.2914C30.1836 15.783 29.0089 16.9752 27.5476 16.9914C27.5379 16.9914 27.5284 16.9903 27.5183 16.9903C27.5086 16.9903 27.4991 16.9914 27.489 16.9914C26.0277 16.9752 24.853 15.7828 24.853 14.2914C24.853 12.7898 26.0431 11.5924 27.5183 11.5924H27.5184ZM17.3288 16.4652C17.3435 16.4655 17.3578 16.4672 17.3728 16.4672C17.3874 16.4672 17.4018 16.4652 17.4167 16.4652C21.104 16.4888 24.0549 19.4651 24.0549 23.1909L24.0546 25.0396H10.6914V23.1909C10.6914 19.4648 13.6415 16.4889 17.3283 16.4652H17.3288ZM7.18399 18.1442C7.19864 18.1445 7.21304 18.1463 7.22795 18.1463C7.24286 18.1463 7.25699 18.1442 7.2719 18.1442C8.51906 18.1542 9.65725 18.5843 10.5636 19.3037C9.91503 20.4512 9.53999 21.7757 9.53999 23.1912V25.0355H1.82528V23.6071C1.82528 20.5791 4.20602 18.1678 7.18386 18.144L7.18399 18.1442ZM27.4743 18.1442C27.4892 18.1445 27.5033 18.1463 27.5182 18.1463C27.5331 18.1463 27.5473 18.1442 27.5622 18.1442C30.54 18.1679 32.9208 20.5794 32.9208 23.6074V25.0355H25.2021L25.2018 23.1912C25.2018 21.7765 24.8278 20.453 24.1806 19.3058C25.0871 18.5853 26.2261 18.1542 27.4743 18.1442H27.4743Z" fill="#103E13"/>
</svg>
